<?xml version="1.0" encoding="UTF-8"?>
<svg version="1.1" xmlns="http://www.w3.org/2000/svg" width="512" height="512">
<path d="M0 0 C5.33278758 3.77197171 7.5830037 6.8535074 10.5625 12.8125 C10.5625 21.0625 10.5625 29.3125 10.5625 37.8125 C75.2425 37.8125 139.9225 37.8125 206.5625 37.8125 C206.5625 29.5625 206.5625 21.3125 206.5625 12.8125 C209.97624385 5.98501231 213.20171547 1.35531647 220.5625 -1.1875 C226.95772098 -1.92714474 233.13590212 -1.98016494 238.80859375 1.34765625 C244.05266786 5.72745089 246.87324822 11.07663029 247.5625 17.8125 C247.66916322 21.27241068 247.65709297 24.72639712 247.625 28.1875 C247.62048828 29.11433594 247.61597656 30.04117187 247.61132812 30.99609375 C247.59961574 33.26829709 247.58321372 35.54036388 247.5625 37.8125 C248.35720703 37.79678955 249.15191406 37.7810791 249.97070312 37.76489258 C284.63379266 37.1702811 311.92746303 43.11848424 337.75 67.6875 C355.39752943 86.01653971 364.72192847 109.70148311 364.70294189 134.94287109 C364.70739858 136.79171858 364.70739858 136.79171858 364.7119453 138.67791653 C364.71911139 142.09202415 364.72180351 145.50608144 364.72254276 148.92019296 C364.72439761 152.60546698 364.73194722 156.29073018 364.73867798 159.97599792 C364.75224557 168.03210934 364.75828385 176.08821576 364.76268864 184.1443367 C364.76545429 189.17881627 364.76969229 194.21329394 364.77419281 199.24777222 C364.7863845 213.1981138 364.79668331 227.14845386 364.8000679 241.09880066 C364.80028747 241.99125427 364.80050703 242.88370789 364.80073325 243.80320555 C364.80095153 244.69774976 364.80116981 245.59229397 364.8013947 246.51394558 C364.80183816 248.32651711 364.80228472 250.13908863 364.80273438 251.95166016 C364.8029558 252.85075108 364.80317723 253.749842 364.80340537 254.6761781 C364.80735016 269.23221275 364.82479488 283.78819724 364.8480939 298.34421253 C364.87184435 313.30357624 364.88427147 328.26291481 364.88543582 343.22229767 C364.88635062 351.61532829 364.89205348 360.00829359 364.91025543 368.40130615 C364.9257065 375.55089697 364.93074758 382.70040228 364.92251733 389.85000664 C364.91862817 393.49327658 364.9194547 397.13637459 364.93357468 400.77962303 C364.94878963 404.74190805 364.94039563 408.70395518 364.92999268 412.66625977 C364.93804908 413.8003446 364.94610548 414.93442944 364.95440602 416.10288048 C364.7972509 441.85029981 353.60441823 464.97160593 335.5625 482.8125 C334.26699219 484.12347656 334.26699219 484.12347656 332.9453125 485.4609375 C314.16407524 503.57340667 289.70218605 511.32924715 263.9519043 511.19345093 C262.54721306 511.19691837 261.14252455 511.20169015 259.73784161 511.20763266 C255.92407994 511.22002335 252.11054679 511.21402753 248.29678488 511.20467401 C244.16582881 511.19783427 240.0349097 511.20838893 235.90396118 511.21661377 C227.82966852 511.22990119 219.75545988 511.22709574 211.68116403 511.21837585 C205.11461467 511.21157996 198.54808873 511.21069079 191.98153687 511.2139473 C191.04427724 511.214407 190.10701761 511.21486669 189.14135617 511.21534032 C187.23688514 511.21629957 185.33241412 511.21727221 183.42794311 511.2182581 C165.60114383 511.22679737 147.77439096 511.21700087 129.94759929 511.200857 C114.67630599 511.18745515 99.40508113 511.18978366 84.13378906 511.20361328 C66.36750698 511.219695 48.60126549 511.22597353 30.83497715 511.21677649 C28.93780582 511.21582092 27.04063448 511.2148778 25.14346313 511.2139473 C24.21020114 511.21348447 23.27693915 511.21302164 22.31539649 511.21254479 C15.76244958 511.20996267 9.20952859 511.21430906 2.65658569 511.22138596 C-5.33744441 511.22983001 -13.33138623 511.22746005 -21.32540631 511.21154372 C-25.39820411 511.20369992 -29.47085511 511.20050235 -33.54365158 511.21049118 C-37.28179431 511.21952008 -41.01965604 511.21437263 -44.75777376 511.19855852 C-46.72930058 511.19369186 -48.70084737 511.20333332 -50.67235279 511.21373022 C-77.00484146 511.04276706 -100.56746344 500.84536209 -119.01660156 482.25292969 C-119.48549805 481.77758789 -119.95439453 481.30224609 -120.4375 480.8125 C-121.25992188 480.00039063 -122.08234375 479.18828125 -122.9296875 478.3515625 C-131.89604758 469.01289681 -137.87064436 458.12081091 -142.375 446.0625 C-142.65746582 445.30718994 -142.93993164 444.55187988 -143.23095703 443.77368164 C-146.79677179 433.66325225 -147.73402841 423.76907694 -147.70492554 413.1010437 C-147.70945665 411.86632328 -147.71398776 410.63160286 -147.71865618 409.35946667 C-147.72906312 405.96239228 -147.73063696 402.56553103 -147.72826743 399.16845608 C-147.72785686 395.49274648 -147.73892125 391.81706767 -147.74838257 388.14137268 C-147.76494222 380.9508833 -147.77048984 373.76042673 -147.77160732 366.56991987 C-147.77256027 360.71982757 -147.77668283 354.86974603 -147.78300858 349.01965714 C-147.80060786 332.40348647 -147.8098496 315.78734157 -147.80834763 299.17116152 C-147.80826772 298.27678759 -147.8081878 297.38241367 -147.80810547 296.4609375 C-147.80802371 295.56546102 -147.80794195 294.66998454 -147.80785771 293.7473724 C-147.80704536 279.24539302 -147.82617362 264.74351763 -147.8543822 250.24156831 C-147.88317299 235.32157687 -147.89691907 220.40163604 -147.89519465 205.48161614 C-147.89453285 197.11705194 -147.89993263 188.75259675 -147.92155075 180.38805771 C-147.93984439 173.26463398 -147.94404329 166.14136867 -147.9305319 159.01793151 C-147.92404298 155.39041077 -147.92373527 151.76319322 -147.9412384 148.13570213 C-148.07889287 117.69545984 -142.24646736 91.98276863 -121.4375 68.8125 C-120.81359375 68.10609375 -120.1896875 67.3996875 -119.546875 66.671875 C-103.65574485 49.71243358 -78.83438803 38.64790798 -55.75292969 37.65380859 C-51.89580317 37.61693828 -48.04444152 37.6371078 -44.1875 37.6875 C-42.84505887 37.69756425 -41.50261031 37.70668393 -40.16015625 37.71484375 C-36.91907511 37.73816088 -33.67838898 37.77088448 -30.4375 37.8125 C-30.44797363 37.24853516 -30.45844727 36.68457031 -30.46923828 36.10351562 C-30.51124478 33.50655719 -30.53696602 30.90967061 -30.5625 28.3125 C-30.57925781 27.425625 -30.59601563 26.53875 -30.61328125 25.625 C-30.67084731 17.79601535 -29.96539247 10.68949713 -24.96484375 4.35546875 C-18.31760497 -2.35977248 -8.6568424 -2.99054556 0 0 Z M-91.4375 96.8125 C-106.43884458 116.08211401 -107.4375 131.28888092 -107.4375 155.8125 C35.1225 155.8125 177.6825 155.8125 324.5625 155.8125 C324.5625 133.80540467 324.06069501 118.61382821 311.5625 100.8125 C310.840625 99.78125 310.11875 98.75 309.375 97.6875 C300.21665084 87.36191026 287.13469684 80.76566671 273.5625 78.8125 C269.03734504 78.58751936 264.52922918 78.62233123 260 78.6875 C258.20079102 78.70103516 258.20079102 78.70103516 256.36523438 78.71484375 C253.43077691 78.73822588 250.49674766 78.7709972 247.5625 78.8125 C247.54791748 79.9770874 247.53333496 81.1416748 247.51831055 82.34155273 C247.45996688 86.69732063 247.38273852 91.05259091 247.30004883 95.40795898 C247.26696816 97.28645704 247.23888473 99.16505046 247.21606445 101.04370117 C247.18220614 103.75740889 247.12987785 106.47025576 247.07421875 109.18359375 C247.06782883 110.01209335 247.0614389 110.84059296 247.05485535 111.69419861 C246.88245618 118.66318622 245.57443645 125.45981 241.375 131.1875 C236.98503911 135.28479683 232.48321946 136.90921072 226.5 137.1875 C220.12181547 136.58005385 215.15762218 134.27997989 210.5625 129.8125 C202.93652101 114.56054202 206.94134441 95.86049855 206.5625 78.8125 C141.8825 78.8125 77.2025 78.8125 10.5625 78.8125 C10.2325 93.6625 9.9025 108.5125 9.5625 123.8125 C3.22916667 133.94583333 3.22916667 133.94583333 -3.3125 136.5625 C-9.89651426 137.33708991 -15.61198667 137.20670405 -21.4375 133.8125 C-27.0068506 129.15494574 -28.97750092 123.69612281 -29.65029907 116.55329895 C-29.76110505 114.12830612 -29.81793013 111.70852789 -29.8515625 109.28125 C-29.87092865 108.40472778 -29.8902948 107.52820557 -29.9102478 106.62512207 C-29.96952621 103.85434378 -30.01621987 101.08352275 -30.0625 98.3125 C-30.10072751 96.42185793 -30.13978195 94.53123239 -30.1796875 92.640625 C-30.2751845 88.0313859 -30.35940406 83.42206543 -30.4375 78.8125 C-53.19229306 78.14027569 -74.94509259 78.62771276 -91.4375 96.8125 Z M-107.4375 196.8125 C-128.0359803 336.68486587 -128.0359803 336.68486587 -90.1875 453.5625 C-77.12195092 465.77849544 -62.30653256 470.12250399 -44.88301086 470.07992554 C-43.50768558 470.08366606 -42.13236241 470.08826918 -40.75704259 470.09365618 C-36.99206513 470.1058521 -33.22717676 470.10562975 -29.46218407 470.10326743 C-25.39590288 470.1028584 -21.32964991 470.11390672 -17.26338196 470.12338257 C-9.3017879 470.13997519 -1.34022347 470.14549134 6.62138643 470.14660732 C13.09563104 470.14755869 19.56986591 470.15167341 26.04410744 470.15800858 C44.41372807 470.1756168 62.78332535 470.18484819 81.15295448 470.18334763 C82.14267237 470.18326772 83.13239027 470.1831878 84.15209961 470.18310547 C85.1430309 470.18302371 86.13396218 470.18294195 87.15492169 470.18285771 C103.2085228 470.18204509 119.26203003 470.20117785 135.31560399 470.2293822 C151.81297776 470.25813672 168.31030577 470.27192106 184.80770522 470.27019465 C194.0642082 470.2695316 203.32061277 470.27498644 212.57709312 470.29655075 C220.45937173 470.31479643 228.34150732 470.31908219 236.22379794 470.3055319 C240.24166786 470.2990191 244.25926369 470.29882354 248.27710724 470.3162384 C251.96306094 470.33204968 255.64852505 470.32902445 259.33446739 470.31167014 C261.28296623 470.30718383 263.23148074 470.32219417 265.17991942 470.33814943 C281.90974627 470.20823253 295.99848909 464.00117279 308.0546875 452.51171875 C366.18972763 389.93958054 324.5625 282.2230109 324.5625 196.8125 C182.0025 196.8125 39.4425 196.8125 -107.4375 196.8125 Z " fill="#031b4e" transform="translate(147.4375,1.1875)"/>
<path d="M0 0 C0.88020309 -0.0033284 1.76040619 -0.0066568 2.6672821 -0.01008606 C4.52386963 -0.01513211 6.38046617 -0.01749511 8.23706055 -0.01733398 C11.05467941 -0.01951612 13.87190362 -0.03768463 16.68945312 -0.05664062 C18.50130076 -0.05957603 20.31315023 -0.06155984 22.125 -0.0625 C22.95655106 -0.06968552 23.78810211 -0.07687103 24.64485168 -0.08427429 C33.506473 -0.05022864 40.58532244 0.94913686 47.09765625 7.25390625 C51.40018193 12.20282076 52.3316857 17.31576213 52.109375 23.67578125 C51.33891425 29.19885944 48.95096535 33.39598504 44.76171875 37.04296875 C40.51466263 40.05130017 37.87199374 41.41569247 32.62939453 41.44262695 C31.09727829 41.45692497 31.09727829 41.45692497 29.53421021 41.47151184 C28.43624115 41.47060043 27.33827209 41.46968903 26.20703125 41.46875 C25.07272675 41.47303513 23.93842224 41.47732025 22.76974487 41.48173523 C20.37075467 41.4874771 17.97174706 41.48797985 15.57275391 41.48364258 C11.90757416 41.48048671 8.24320472 41.50393045 4.578125 41.52929688 C2.24609477 41.53157032 -0.08593763 41.53227316 -2.41796875 41.53125 C-3.51188934 41.54045975 -4.60580994 41.54966949 -5.73287964 41.55915833 C-12.45547672 41.51841392 -17.20421131 40.99141845 -22.3203125 36.23046875 C-22.89136719 35.54984375 -23.46242187 34.86921875 -24.05078125 34.16796875 C-24.63472656 33.48734375 -25.21867188 32.80671875 -25.8203125 32.10546875 C-29.40856451 27.20251283 -28.66081248 20.96048774 -28.23828125 15.16796875 C-26.00976121 8.7169897 -21.3415513 4.14517365 -15.23828125 1.16796875 C-10.15169442 0.050064 -5.17979737 0.00688161 0 0 Z " fill="#031b4e" transform="translate(244.23828125,372.83203125)"/>
<path d="M0 0 C0.8773732 -0.00191345 1.7547464 -0.0038269 2.65870667 -0.00579834 C4.5033497 -0.00715157 6.34800254 -0.00351579 8.19262695 0.00488281 C10.99257134 0.01558169 13.79187233 0.00496469 16.59179688 -0.0078125 C18.39453265 -0.0064905 20.19726802 -0.00392727 22 0 C23.23791542 -0.00607269 23.23791542 -0.00607269 24.50083923 -0.01226807 C33.33806975 0.05786824 40.40809868 1.06430532 46.90234375 7.3515625 C51.20451657 12.30007114 52.14180185 17.41674155 51.91015625 23.77734375 C50.96754766 30.60054456 47.46222617 34.87639135 42.25 39.13671875 C39.07184614 41.26777783 36.25613842 41.3985916 32.54760742 41.42675781 C31.52612106 41.43636536 30.5046347 41.4459729 29.45219421 41.45587158 C27.7974987 41.4622464 27.7974987 41.4622464 26.109375 41.46875 C24.97365555 41.47445007 23.8379361 41.48015015 22.6678009 41.48602295 C20.26283704 41.49547453 17.85786021 41.50200756 15.45288086 41.50585938 C11.77890337 41.51555901 8.10548665 41.54657926 4.43164062 41.578125 C2.09505541 41.58465572 -0.24153382 41.58990592 -2.578125 41.59375 C-3.67518265 41.6060968 -4.7722403 41.6184436 -5.90254211 41.63116455 C-12.43783588 41.61214016 -17.24532609 41.20182876 -22.26171875 36.58203125 C-22.7309375 36.00324219 -23.20015625 35.42445313 -23.68359375 34.828125 C-24.40289062 33.96380859 -24.40289062 33.96380859 -25.13671875 33.08203125 C-29.20235635 27.38768943 -28.99494335 22.1030472 -28.43359375 15.265625 C-26.71777296 9.58196863 -22.41788795 5.3798056 -17.43359375 2.265625 C-11.50349277 0.47074317 -6.17198185 -0.03020307 0 0 Z " fill="#031b4e" transform="translate(126.43359375,372.734375)"/>
<path d="M0 0 C0.87358658 -0.00428513 1.74717316 -0.00857025 2.64723206 -0.01298523 C4.48169087 -0.01868876 6.31617228 -0.01925842 8.15063477 -0.01489258 C10.93089967 -0.0117307 13.71010034 -0.03524837 16.49023438 -0.06054688 C36.42443142 -0.13437641 36.42443142 -0.13437641 43.94140625 4.94921875 C44.45703125 5.51898438 44.97265625 6.08875 45.50390625 6.67578125 C46.04015625 7.24039062 46.57640625 7.805 47.12890625 8.38671875 C51.10870867 13.92678462 51.23462094 19.7150995 50.50390625 26.30078125 C48.72897885 32.50771299 44.80417167 36.74677497 39.50390625 40.30078125 C36.55478018 41.28382327 34.57857024 41.44397014 31.50097656 41.4777832 C30.4827179 41.49061844 29.46445923 41.50345367 28.41534424 41.51667786 C27.31535095 41.52406479 26.21535767 41.53145172 25.08203125 41.5390625 C23.38200958 41.55117012 23.38200958 41.55117012 21.64764404 41.56352234 C19.24688241 41.57736027 16.84610113 41.58808372 14.4453125 41.59594727 C10.78217054 41.61314853 7.11993373 41.65703755 3.45703125 41.70117188 C1.12370455 41.71129996 -1.20962982 41.7198157 -3.54296875 41.7265625 C-5.18081329 41.75282463 -5.18081329 41.75282463 -6.85174561 41.77961731 C-14.18156134 41.75881553 -18.6272482 40.7623799 -24.203125 35.7734375 C-29.15565275 29.4559021 -30.45365024 24.24001545 -29.49609375 16.30078125 C-27.91518948 10.93327993 -24.85682794 7.23532008 -20.765625 3.52734375 C-14.44839622 0.11321322 -7.02554143 -0.0078182 0 0 Z " fill="#031b4e" transform="translate(363.49609375,372.69921875)"/>
<path d="M0 0 C1.01825867 -0.01283524 2.03651733 -0.02567047 3.08563232 -0.03889465 C4.18562561 -0.04628159 5.2856189 -0.05366852 6.41894531 -0.0612793 C8.11896698 -0.07338692 8.11896698 -0.07338692 9.85333252 -0.08573914 C12.25409415 -0.09957706 14.65487543 -0.11030052 17.05566406 -0.11816406 C20.71880603 -0.13536532 24.38104284 -0.17925435 28.04394531 -0.22338867 C30.37727201 -0.23351676 32.71060638 -0.2420325 35.04394531 -0.2487793 C36.68178986 -0.27504143 36.68178986 -0.27504143 38.35272217 -0.30183411 C45.68253791 -0.28103233 50.12822476 0.7154033 55.70410156 5.7043457 C60.65662932 12.02188111 61.9546268 17.23776775 60.99707031 25.17700195 C59.17182676 31.37408636 55.30746363 35.61620458 49.99707031 39.17700195 C47.03744492 40.16354375 45.06695674 40.31467627 41.97827148 40.33813477 C40.95678513 40.34774231 39.93529877 40.35734985 38.88285828 40.36724854 C37.22816277 40.37362335 37.22816277 40.37362335 35.54003906 40.38012695 C34.40431961 40.38582703 33.26860016 40.3915271 32.09846497 40.3973999 C29.6935011 40.40685149 27.28852427 40.41338451 24.88354492 40.41723633 C21.20956743 40.42693596 17.53615071 40.45795622 13.86230469 40.48950195 C11.52571947 40.49603267 9.18913025 40.50128287 6.85253906 40.50512695 C5.75548141 40.51747375 4.65842377 40.52982056 3.52812195 40.5425415 C-3.21190754 40.52292112 -7.95459948 40.01372199 -13.08496094 35.23950195 C-13.65601563 34.55887695 -14.22707031 33.87825195 -14.81542969 33.17700195 C-15.399375 32.49637695 -15.98332031 31.81575195 -16.58496094 31.11450195 C-20.18153649 26.20017282 -19.40421834 19.98025329 -19.00292969 14.17700195 C-17.24117427 8.34118713 -12.81729472 4.7004183 -8.00292969 1.17700195 C-5.05380362 0.19395993 -3.07759367 0.03381306 0 0 Z " fill="#031b4e" transform="translate(235.0029296875,255.822998046875)"/>
<path d="M0 0 C1.02148636 -0.00960754 2.04297272 -0.01921509 3.09541321 -0.02911377 C4.75010872 -0.03548859 4.75010872 -0.03548859 6.43823242 -0.04199219 C7.57395187 -0.04769226 8.70967133 -0.05339233 9.87980652 -0.05926514 C12.28477038 -0.06871672 14.68974721 -0.07524974 17.09472656 -0.07910156 C20.76870405 -0.08880119 24.44212077 -0.11982145 28.1159668 -0.15136719 C30.45255202 -0.15789791 32.78914124 -0.16314811 35.12573242 -0.16699219 C36.22279007 -0.17933899 37.31984772 -0.19168579 38.45014954 -0.20440674 C45.19017903 -0.18478636 49.93287097 0.32441277 55.06323242 5.09863281 C55.63428711 5.77925781 56.2053418 6.45988281 56.79370117 7.16113281 C57.37764648 7.84175781 57.9615918 8.52238281 58.56323242 9.22363281 C62.1384329 14.10875523 61.62522906 20.39415581 60.98120117 26.16113281 C58.82089404 31.85987405 54.84995439 35.66833159 49.98120117 39.16113281 C47.0320751 40.14417483 45.05586516 40.30432171 41.97827148 40.33813477 C40.96001282 40.35097 39.94175415 40.36380524 38.89263916 40.37702942 C37.79264587 40.38441635 36.69265259 40.39180328 35.55932617 40.39941406 C33.8593045 40.41152168 33.8593045 40.41152168 32.12493896 40.4238739 C29.72417733 40.43771183 27.32339605 40.44843528 24.92260742 40.45629883 C21.25946546 40.47350009 17.59722865 40.51738911 13.93432617 40.56152344 C11.60099947 40.57165152 9.2676651 40.58016726 6.93432617 40.58691406 C5.29648163 40.61317619 5.29648163 40.61317619 3.62554932 40.63996887 C-3.70426642 40.6191671 -8.14995327 39.62273147 -13.72583008 34.63378906 C-18.67835783 28.31625366 -19.97635532 23.10036701 -19.01879883 15.16113281 C-17.19355527 8.9640484 -13.32919215 4.72193019 -8.01879883 1.16113281 C-5.05917343 0.17459101 -3.08868525 0.0234585 0 0 Z " fill="#031b4e" transform="translate(353.018798828125,255.8388671875)"/>
<path d="M0 0 C1.02148636 -0.00960754 2.04297272 -0.01921509 3.09541321 -0.02911377 C4.75010872 -0.03548859 4.75010872 -0.03548859 6.43823242 -0.04199219 C7.57395187 -0.04769226 8.70967133 -0.05339233 9.87980652 -0.05926514 C12.28477038 -0.06871672 14.68974721 -0.07524974 17.09472656 -0.07910156 C20.76870405 -0.08880119 24.44212077 -0.11982145 28.1159668 -0.15136719 C30.45255202 -0.15789791 32.78914124 -0.16314811 35.12573242 -0.16699219 C36.22279007 -0.17933899 37.31984772 -0.19168579 38.45014954 -0.20440674 C44.9888281 -0.18537249 49.75188753 0.24923034 54.80932617 4.80957031 C59.61170762 10.6410335 61.48315773 14.9476469 61.28979492 22.60253906 C60.46213423 29.46478913 56.88138269 33.76833411 51.66479492 38.03222656 C48.48664107 40.16328564 45.67093334 40.29409941 41.96240234 40.32226562 C40.94091599 40.33187317 39.91942963 40.34148071 38.86698914 40.35137939 C37.21229362 40.35775421 37.21229362 40.35775421 35.52416992 40.36425781 C34.38845047 40.36995789 33.25273102 40.37565796 32.08259583 40.38153076 C29.67763196 40.39098235 27.27265513 40.39751537 24.86767578 40.40136719 C21.19369829 40.41106682 17.52028157 40.44208708 13.84643555 40.47363281 C11.50985033 40.48016353 9.17326111 40.48541373 6.83666992 40.48925781 C5.73961227 40.50160461 4.64255463 40.51395142 3.51225281 40.52667236 C-3.02304096 40.50764797 -7.83053117 40.09733657 -12.84692383 35.47753906 C-13.31614258 34.89875 -13.78536133 34.31996094 -14.26879883 33.72363281 C-14.9880957 32.85931641 -14.9880957 32.85931641 -15.72192383 31.97753906 C-19.75042304 26.33521336 -19.86448917 20.9528109 -19.01879883 14.16113281 C-16.8454948 8.46203942 -12.89329579 4.65805454 -8.01879883 1.16113281 C-5.05917343 0.17459101 -3.08868525 0.0234585 0 0 Z " fill="#031b4e" transform="translate(117.018798828125,255.8388671875)"/>
</svg>
