<?xml version="1.0" encoding="UTF-8"?>
<svg version="1.1" xmlns="http://www.w3.org/2000/svg" width="256" height="256">
<path  d="M0 0 C17.05082716 13.04804152 26.33490738 30.95716543 29.25 52.0859375 C31.168044 72.65892997 23.22674468 90.09606184 12.21313477 106.86645508 C11.70194092 107.64529053 11.19074707 108.42412598 10.6640625 109.2265625 C9.96724365 110.27118652 9.96724365 110.27118652 9.25634766 111.33691406 C8.08376113 113.03854674 8.08376113 113.03854674 8.25 115.0859375 C8.82741943 115.39708496 9.40483887 115.70823242 9.99975586 116.02880859 C14.75881145 118.59757684 19.50672802 121.1848361 24.2421875 123.796875 C27.90815231 125.81846949 31.59135028 127.78496825 35.3203125 129.6875 C36.81821772 130.48602437 38.315645 131.2854462 39.8125 132.0859375 C40.49497803 132.41513184 41.17745605 132.74432617 41.88061523 133.08349609 C47.7666838 136.32161327 49.35417545 140.92761156 51.52474976 147.06958008 C52.65366451 150.20821486 53.88038317 153.30800122 55.09184265 156.41551208 C56.95771703 161.21407914 58.78936394 166.02573993 60.625 170.8359375 C61.01451843 171.85630096 61.40403687 172.87666443 61.80535889 173.927948 C63.82381541 179.21716515 65.83963048 184.50738058 67.85351562 189.79833984 C69.7845214 194.86942832 71.7262907 199.93630721 73.67160034 205.00192261 C75.08146463 208.67927373 76.48278644 212.3598348 77.88165283 216.04138184 C78.53997877 217.76916887 79.20168379 219.49567245 79.86688232 221.2208252 C80.78779001 223.61122668 81.6961444 226.00604041 82.6015625 228.40234375 C82.87252747 229.09713333 83.14349243 229.79192291 83.42266846 230.50776672 C84.91344493 234.49991134 85.62624622 237.82517064 85.25 242.0859375 C84.25 243.0859375 84.25 243.0859375 81.51538086 243.3112793 C77.92101253 243.06323429 76.09919554 242.27374624 73.00390625 240.48046875 C71.51721436 239.63258789 71.51721436 239.63258789 70.00048828 238.76757812 C68.94845215 238.15076172 67.89641602 237.53394531 66.8125 236.8984375 C65.71663574 236.27001953 64.62077148 235.64160156 63.49169922 234.99414062 C61.20763644 233.68409113 58.92641572 232.36907505 56.64794922 231.04931641 C51.41161707 228.02369612 46.14241899 225.05697693 40.875 222.0859375 C39.9682251 221.57135986 39.0614502 221.05678223 38.12719727 220.52661133 C36.37950297 219.53549465 34.62296139 218.55979715 32.85742188 217.60083008 C30.25 216.0859375 30.25 216.0859375 27.62695312 214.1394043 C24.78476742 212.1741457 22.61551473 210.89996682 19.25 210.0859375 C14.09588428 211.39893341 9.93521675 214.07850392 5.5 216.8984375 C4.23170192 217.65849175 2.9606609 218.4139863 1.68701172 219.16503906 C-0.89644925 220.6956206 -3.46435699 222.248225 -6.02246094 223.82080078 C-11.46633772 227.15301399 -17.04951563 230.23026279 -22.625 233.3359375 C-24.4360688 234.35990734 -26.24604495 235.38581323 -28.0546875 236.4140625 C-29.26850098 237.09758789 -29.26850098 237.09758789 -30.50683594 237.79492188 C-31.92732604 238.61246124 -33.33404372 239.4548377 -34.71972656 240.33007812 C-38.66276735 242.78936408 -41.13797227 243.49152412 -45.75 243.0859375 C-48.51293945 241.93115234 -48.51293945 241.93115234 -51.36328125 240.296875 C-52.43497559 239.69133789 -53.50666992 239.08580078 -54.61083984 238.46191406 C-55.7498877 237.8015918 -56.88893555 237.14126953 -58.0625 236.4609375 C-59.25400292 235.78226806 -60.44623426 235.10487602 -61.63916016 234.42871094 C-64.10772091 233.02765599 -66.57246523 231.62020443 -69.03466797 230.20800781 C-72.64622399 228.14010551 -76.27486813 226.1039573 -79.91015625 224.078125 C-81.0396167 223.4485791 -82.16907715 222.8190332 -83.33276367 222.17041016 C-84.41920166 221.56503418 -85.50563965 220.9596582 -86.625 220.3359375 C-88.66476274 219.19656521 -90.70387618 218.05602933 -92.7421875 216.9140625 C-94.01618408 216.2010498 -94.01618408 216.2010498 -95.31591797 215.47363281 C-97.75 214.0859375 -97.75 214.0859375 -100.18798828 212.34667969 C-103.56064448 210.68702687 -105.17005632 211.06219368 -108.75 212.0859375 C-111.60166307 213.34841827 -111.60166307 213.34841827 -114.43359375 215.0078125 C-115.51560059 215.6152832 -116.59760742 216.22275391 -117.71240234 216.84863281 C-118.87088225 217.51086828 -120.02924561 218.17330768 -121.1875 218.8359375 C-122.38447715 219.51219254 -123.58191155 220.18763885 -124.77978516 220.86230469 C-127.23250792 222.24568364 -129.68219571 223.63421681 -132.12939453 225.02734375 C-135.56850567 226.98473526 -139.01567067 228.92757226 -142.46484375 230.8671875 C-146.37205261 233.06633518 -150.27829354 235.26711229 -154.1796875 237.4765625 C-154.98792969 237.93385742 -155.79617187 238.39115234 -156.62890625 238.86230469 C-158.33510129 239.84658755 -160.01259785 240.88053242 -161.6796875 241.9296875 C-164.46751688 243.48666391 -166.61406539 243.37102246 -169.75 243.0859375 C-170.08 242.7559375 -170.41 242.4259375 -170.75 242.0859375 C-170.71193542 235.68031545 -168.91969494 230.01697301 -166.6015625 224.12109375 C-166.27723236 223.26994995 -165.95290222 222.41880615 -165.6187439 221.54187012 C-164.54819847 218.73981493 -163.46246736 215.94396491 -162.375 213.1484375 C-161.22287061 210.16463551 -160.07303786 207.17995723 -158.92376709 204.1950531 C-158.11828087 202.10322202 -157.3114948 200.01189105 -156.503479 197.92103577 C-153.91701679 191.20503197 -151.41393403 184.46358103 -148.96957397 177.69459534 C-147.31584644 173.11740327 -145.64009575 168.54840606 -143.96307373 163.97970581 C-143.15863562 161.77060745 -142.36427935 159.55781 -141.5803833 157.34133911 C-140.47658094 154.22600722 -139.33626148 151.12632821 -138.1875 148.02734375 C-137.87227386 147.10739624 -137.55704773 146.18744873 -137.23226929 145.23962402 C-134.63722764 138.40634895 -131.10928399 135.50893689 -124.75 132.0859375 C-123.72245605 131.4882959 -122.69491211 130.8906543 -121.63623047 130.27490234 C-120.72244629 129.78715332 -119.80866211 129.2994043 -118.8671875 128.796875 C-117.33384766 127.97316406 -117.33384766 127.97316406 -115.76953125 127.1328125 C-114.73183594 126.58109375 -113.69414063 126.029375 -112.625 125.4609375 C-110.53868167 124.34446135 -108.45273443 123.22729143 -106.3671875 122.109375 C-105.3987793 121.59084961 -104.43037109 121.07232422 -103.43261719 120.53808594 C-100.17268635 118.77342734 -96.95543516 116.94745084 -93.75 115.0859375 C-95.01413058 111.71356693 -96.46057609 108.74995203 -98.39453125 105.71484375 C-111.3907297 84.95377602 -118.10798312 65.38046077 -112.7265625 40.76171875 C-107.65829415 21.68475666 -96.2070893 5.98849041 -79.2421875 -4.0078125 C-53.84813807 -17.86944127 -23.84851349 -16.5991074 0 0 Z M-93.625 20.5234375 C-104.14462624 34.94302274 -107.34218365 50.5719174 -105.75 68.0859375 C-103.00420505 84.29920291 -93.27704535 97.58937529 -84.5625 111.13671875 C-80.73790543 117.08663346 -76.98805415 123.08139291 -73.25 129.0859375 C-67.71955496 137.96161328 -62.13610659 146.80147515 -56.4921875 155.60546875 C-55.95722656 156.44207031 -55.42226562 157.27867187 -54.87109375 158.140625 C-54.35272949 158.94854492 -53.83436523 159.75646484 -53.30029297 160.58886719 C-52.21468377 162.33746733 -51.16988504 164.11176137 -50.15673828 165.90332031 C-49.64224121 166.81178711 -49.12774414 167.72025391 -48.59765625 168.65625 C-48.14527588 169.48141113 -47.69289551 170.30657227 -47.22680664 171.15673828 C-45.89033922 173.20209817 -45.89033922 173.20209817 -43.75952148 174.05029297 C-41.6849221 174.29343 -41.6849221 174.29343 -40.15600586 172.88476562 C-38.73980235 171.07289075 -37.4697759 169.25694907 -36.25390625 167.3046875 C-35.78404297 166.55509766 -35.31417969 165.80550781 -34.83007812 165.03320312 C-34.07887695 163.82180664 -34.07887695 163.82180664 -33.3125 162.5859375 C-32.23057383 160.85670508 -31.14853961 159.12754027 -30.06640625 157.3984375 C-29.51484863 156.51414063 -28.96329102 155.62984375 -28.39501953 154.71875 C-25.86202992 150.66476366 -23.30556316 146.6257158 -20.75 142.5859375 C-19.74598356 140.99616333 -18.74207754 139.40631943 -17.73828125 137.81640625 C-15.77888348 134.71386715 -13.81786085 131.61236468 -11.85546875 128.51171875 C-9.89235058 125.40973509 -7.9331626 122.30531742 -5.9765625 119.19921875 C-3.60785756 115.43921602 -1.22375716 111.68929546 1.1640625 107.94140625 C2.50546864 105.82308148 3.84661764 103.70459385 5.1875 101.5859375 C5.81438721 100.60729736 6.44127441 99.62865723 7.0871582 98.62036133 C18.06366406 81.21591916 23.62241393 63.32279027 19.1875 42.7734375 C13.73789599 24.76714222 2.17421929 10.4500698 -14.375 1.3984375 C-43.25792234 -12.06243063 -73.58812153 -3.69696505 -93.625 20.5234375 Z M7.25 125.0859375 C8.02975777 132.9053834 9.73309783 140.5258433 11.375 148.19921875 C11.68530027 149.66028296 11.99535479 151.12139939 12.30517578 152.58256531 C12.95203093 155.62978863 13.60111616 158.67652509 14.25195312 161.72290039 C15.08600001 165.62720831 15.91553575 169.53245751 16.74356079 173.43804646 C17.38214356 176.4485969 18.02252509 179.45876235 18.66351318 182.4688015 C18.97013705 183.90922219 19.27633302 185.34973404 19.58209229 186.79033852 C20.00871334 188.7985094 20.43761647 190.80617908 20.8671875 192.8137207 C21.11065918 193.95541214 21.35413086 195.09710358 21.60498047 196.27339172 C22.48105369 200.76003293 22.48105369 200.76003293 25.72412109 203.72070312 C26.81289551 204.30529297 27.90166992 204.88988281 29.0234375 205.4921875 C29.61498123 205.81377335 30.20652496 206.13535919 30.81599426 206.46669006 C32.74783171 207.51500776 34.68625408 208.55046112 36.625 209.5859375 C39.27694489 211.01807837 41.92562026 212.45621316 44.57421875 213.89453125 C45.23204849 214.25062973 45.88987823 214.60672821 46.56764221 214.97361755 C53.07306113 218.50620372 59.45894721 222.23569105 65.78857422 226.07421875 C67.57567567 227.13639874 69.40858559 228.1209759 71.25 229.0859375 C71.91 228.7559375 72.57 228.4259375 73.25 228.0859375 C72.70194702 226.66728394 72.70194702 226.66728394 72.14282227 225.2199707 C71.0204563 222.31404013 69.90030812 219.40726201 68.78076172 216.50024414 C67.45454494 213.05795419 66.12044524 209.61884663 64.78173828 206.18139648 C61.39220143 197.44822365 58.08014212 188.70251947 55.00358582 179.85346985 C53.58181175 175.76986744 52.12798647 171.697959 50.67306519 167.62606812 C49.97974191 165.65628547 49.30229867 163.68083425 48.64163208 161.69985962 C44.47504015 148.51729435 44.47504015 148.51729435 34.8984375 139.17578125 C32.70419547 138.09995738 30.48808923 137.06728945 28.25 136.0859375 C26.37020502 135.04123756 24.49965253 133.97966077 22.640625 132.8984375 C20.92895079 131.95753225 19.21544069 131.01995812 17.5 130.0859375 C16.613125 129.59738281 15.72625 129.10882813 14.8125 128.60546875 C11.2188182 126.25160239 11.2188182 126.25160239 7.25 125.0859375 Z M-93.75 125.0859375 C-97.80897433 127.30571292 -101.86569374 129.52953649 -105.92041016 131.75708008 C-107.29903474 132.5137213 -108.67826053 133.2692682 -110.05810547 134.02368164 C-112.04555177 135.11054395 -114.03077654 136.20137102 -116.015625 137.29296875 C-116.62931946 137.62746536 -117.24301392 137.96196198 -117.87530518 138.30659485 C-123.62904422 141.48047761 -126.83790861 143.34982212 -129.17260742 149.64526367 C-129.60373337 150.78883835 -130.03485931 151.93241302 -130.47904968 153.11064148 C-130.9380965 154.36664188 -131.3968958 155.62273276 -131.85546875 156.87890625 C-132.34275251 158.18517098 -132.8311623 159.49101615 -133.32063293 160.79646301 C-134.61223473 164.2503409 -135.88868963 167.70962764 -137.1619873 171.17028809 C-138.42540396 174.59660725 -139.70237299 178.01785809 -140.97851562 181.43945312 C-142.96446866 186.76876449 -144.94289939 192.10080157 -146.91552734 197.43505859 C-150.82315573 207.99926266 -154.78492289 218.54318405 -158.75 229.0859375 C-155.27450785 227.75702722 -152.02128126 226.23965512 -148.75 224.46875 C-147.79013184 223.95159424 -146.83026367 223.43443848 -145.84130859 222.90161133 C-143.73992183 221.75233765 -141.64405335 220.59292836 -139.55322266 219.42456055 C-134.34890255 216.52423227 -129.20392694 213.78783078 -123.7109375 211.47265625 C-113.88736086 207.23332421 -113.88736086 207.23332421 -107.30419922 199.18408203 C-105.06976382 192.64044791 -103.96698768 185.99445357 -103.13134766 179.14746094 C-102.76536591 176.2092976 -102.30661857 173.31621354 -101.76171875 170.40625 C-101.61565186 169.61750488 -101.46958496 168.82875977 -101.3190918 168.01611328 C-100.75 166.0859375 -100.75 166.0859375 -98.75 164.0859375 C-96.125 164.4609375 -96.125 164.4609375 -93.75 165.0859375 C-94.38058451 173.8240372 -96.17070467 182.1633192 -98.109375 190.69140625 C-98.33367187 191.71621094 -98.55796875 192.74101562 -98.7890625 193.796875 C-98.99740723 194.71774902 -99.20575195 195.63862305 -99.42041016 196.58740234 C-99.76697354 199.21460953 -99.83359845 200.67010891 -98.75 203.0859375 C-96.89894379 204.60917589 -96.89894379 204.60917589 -94.5 205.828125 C-93.59290283 206.33045654 -92.68580566 206.83278809 -91.7512207 207.3503418 C-90.26561646 208.14758667 -90.26561646 208.14758667 -88.75 208.9609375 C-86.66009239 210.110561 -84.57025109 211.26030504 -82.48046875 212.41015625 C-80.83570557 213.30613525 -80.83570557 213.30613525 -79.15771484 214.22021484 C-73.43165243 217.35523197 -67.75100008 220.57094222 -62.0625 223.7734375 C-59.97604819 224.94541398 -57.88886314 226.11608651 -55.80078125 227.28515625 C-54.92075439 227.77846436 -54.04072754 228.27177246 -53.1340332 228.7800293 C-51.02744453 229.93396097 -48.90119704 231.01861166 -46.75 232.0859375 C-46.62328872 225.0386066 -46.53568606 217.99156905 -46.4753418 210.94335938 C-46.45018788 208.54546125 -46.41606081 206.14763986 -46.37280273 203.75 C-46.31219265 200.30449501 -46.28379844 196.86000304 -46.26171875 193.4140625 C-46.23591232 192.34101868 -46.2101059 191.26797485 -46.18351746 190.16241455 C-46.0079739 184.29673228 -46.0079739 184.29673228 -49.11230469 179.62036133 C-49.98274414 179.11400146 -50.85318359 178.6076416 -51.75 178.0859375 C-53.22875977 176.18920898 -53.22875977 176.18920898 -54.44140625 174.20703125 C-54.90522705 173.46001953 -55.36904785 172.71300781 -55.84692383 171.94335938 C-56.57238403 170.74549805 -56.57238403 170.74549805 -57.3125 169.5234375 C-58.36954643 167.81365044 -59.42684551 166.10401957 -60.484375 164.39453125 C-61.02255859 163.51780762 -61.56074219 162.64108398 -62.11523438 161.73779297 C-64.72885361 157.4980779 -67.39656832 153.29287991 -70.0625 149.0859375 C-75.54267643 140.42731171 -75.54267643 140.42731171 -77.98828125 136.484375 C-78.92220703 134.98777344 -78.92220703 134.98777344 -79.875 133.4609375 C-80.65230469 132.20410156 -80.65230469 132.20410156 -81.4453125 130.921875 C-82.63012661 128.95003063 -82.63012661 128.95003063 -84.75 128.0859375 C-84.926521 128.89861084 -85.10304199 129.71128418 -85.28491211 130.54858398 C-86.08194783 134.20771443 -86.88464521 137.86557963 -87.6875 141.5234375 C-87.96529297 142.80283203 -88.24308594 144.08222656 -88.52929688 145.40039062 C-88.79677734 146.61533203 -89.06425781 147.83027344 -89.33984375 149.08203125 C-89.58597412 150.20794678 -89.83210449 151.3338623 -90.08569336 152.49389648 C-90.75 155.0859375 -90.75 155.0859375 -91.75 156.0859375 C-93.41617115 156.12657582 -95.08388095 156.1286585 -96.75 156.0859375 C-97.02135353 148.94851747 -95.7298912 142.71465522 -94.08398438 135.80078125 C-93.90029297 134.99253906 -93.71660156 134.18429688 -93.52734375 133.3515625 C-93.35452881 132.62743164 -93.18171387 131.90330078 -93.00366211 131.15722656 C-92.72304463 128.86583227 -93.05811206 127.27214328 -93.75 125.0859375 Z M-1.75 128.0859375 C-6.28730789 133.76470649 -9.99791622 140.06339937 -13.75 146.2734375 C-18.28450914 153.7626757 -22.93992075 161.16734258 -27.6875 168.5234375 C-28.32623047 169.52463623 -28.96496094 170.52583496 -29.62304688 171.55737305 C-30.53473633 172.96176636 -30.53473633 172.96176636 -31.46484375 174.39453125 C-32.00230225 175.22782959 -32.53976074 176.06112793 -33.09350586 176.91967773 C-34.75 179.0859375 -34.75 179.0859375 -36.82514954 180.41317749 C-38.95203079 181.92273288 -38.95203079 181.92273288 -39.23101807 184.34489441 C-39.2176944 185.6672686 -39.2176944 185.6672686 -39.20410156 187.01635742 C-39.20379944 188.01716843 -39.20349731 189.01797943 -39.20318604 190.04911804 C-39.18254089 191.12732315 -39.16189575 192.20552826 -39.140625 193.31640625 C-39.13496521 194.42196365 -39.12930542 195.52752106 -39.12347412 196.6665802 C-39.10105795 200.20263714 -39.05084996 203.73768609 -39 207.2734375 C-38.97994187 209.66860517 -38.96168991 212.06378871 -38.9453125 214.45898438 C-38.901176 220.33498017 -38.83421128 226.21038683 -38.75 232.0859375 C-38.09080566 231.72532227 -37.43161133 231.36470703 -36.75244141 230.99316406 C-31.85124404 228.31539466 -26.94472376 225.64850269 -22.0234375 223.0078125 C-12.57328474 217.93315569 -3.12837527 212.84157923 6.1875 207.5234375 C6.89664551 207.1305957 7.60579102 206.73775391 8.33642578 206.33300781 C11.78116464 204.46235194 11.78116464 204.46235194 14.01475525 201.38909912 C14.34994926 198.10738518 13.67821001 195.33808996 12.98657227 192.11425781 C12.84041473 191.4211702 12.6942572 190.72808258 12.54367065 190.01399231 C12.05960322 187.72881284 11.56308625 185.44653081 11.06640625 183.1640625 C10.72790303 181.5781061 10.39018054 179.99198289 10.0532074 178.40570068 C9.16501241 174.23489267 8.26623139 170.06643493 7.36523438 165.89837646 C6.44737738 161.64325388 5.53953992 157.38599607 4.63085938 153.12890625 C2.84704441 144.7791264 1.05204142 136.43180261 -0.75 128.0859375 C-1.08 128.0859375 -1.41 128.0859375 -1.75 128.0859375 Z " fill="#031b4e" transform="translate(170.75,12.9140625)"/>
<path d="M0 0 C10.10658462 6.99087452 16.59999396 16.31318126 19.453125 28.2890625 C21.34645922 40.16543168 18.65217642 51.31138055 11.84375 61.17578125 C4.6365429 70.30772007 -4.57697534 75.89358889 -16.16015625 77.71484375 C-27.71234337 78.75114289 -38.72514211 76.32016546 -48.16796875 69.40234375 C-57.81897558 61.22737326 -63.05097707 50.88516358 -64.4140625 38.38671875 C-64.96088076 27.45035361 -60.99158229 17.13420418 -54.16015625 8.71484375 C-53.65871094 8.08964844 -53.15726563 7.46445312 -52.640625 6.8203125 C-39.71333719 -7.61673155 -16.22109639 -9.6505257 0 0 Z M-47.17578125 13.7890625 C-53.80530133 21.7695562 -55.77665173 29.17965629 -55.51171875 39.5 C-54.59403379 47.89171916 -50.57887215 55.68573505 -44.34375 61.37109375 C-35.69074459 68.27995129 -27.00413697 69.9366858 -16.14794922 69.02539062 C-8.73343453 67.86704345 -1.86538056 63.44933588 2.83984375 57.71484375 C3.52046875 56.99296875 4.20109375 56.27109375 4.90234375 55.52734375 C10.48392362 47.42505039 11.96790933 39.45616003 10.83984375 29.71484375 C8.85672036 20.33219123 4.04942802 13.18060359 -3.94921875 7.859375 C-18.80867549 -0.57166447 -35.07575009 1.33728624 -47.17578125 13.7890625 Z " fill="#00bde0" transform="translate(150.16015625,35.28515625)"/>
<path d="M0 0 C7.35969887 5.25086208 11.51751177 11.55971679 13.03125 20.44921875 C13.91148215 28.81142413 11.02441024 36.16747305 5.84375 42.65625 C0.45115634 47.99073381 -6.23020453 50.55612552 -13.71875 50.69921875 C-22.11932747 50.57604313 -28.98577184 47.3682762 -34.96875 41.44921875 C-39.83206203 34.62372884 -41.7561184 27.85286221 -40.96875 19.44921875 C-39.48824993 11.11400333 -34.77464147 4.88727957 -27.9375 -0.00390625 C-19.69705666 -4.3701113 -8.23693251 -4.37971225 0 0 Z M-28.34375 11.94921875 C-32.01206764 17.59278435 -32.62836805 21.74664828 -31.96875 28.44921875 C-30.16380572 33.97022477 -26.52252265 37.08052428 -21.96875 40.44921875 C-17.78286228 42.54216261 -12.5271859 41.87339824 -7.96875 41.44921875 C-3.06161985 39.1294845 -0.1576452 35.73144944 3.03125 31.44921875 C4.70200165 26.43696381 5.09656518 21.14464983 3.125 16.15625 C-0.04861883 10.73465116 -3.93944685 7.45898647 -9.96875 5.44921875 C-17.52994376 4.80843962 -23.02258051 6.34798771 -28.34375 11.94921875 Z " fill="#00bde0" transform="translate(141.96875,47.55078125)"/>
</svg>
